<svg width="72" height="61" viewBox="0 0 72 61" fill="none" xmlns="http://www.w3.org/2000/svg">
<path d="M49.2452 34.9303C49.2452 41.0472 43.3151 46.006 36 46.006C28.6849 46.006 22.7548 41.0472 22.7548 34.9303C22.7548 28.8133 28.6849 23.8545 36 23.8545C43.3151 23.8545 49.2452 28.8133 49.2452 34.9303Z" stroke="#070707" stroke-width="2"/>
<path d="M1.5625 50.2031L1.5625 23.2082C1.5625 18.6716 5.96049 14.994 11.3857 14.994C15.1064 14.994 18.5078 13.2361 20.1718 10.4533L22.3981 6.73002C24.2402 3.6492 28.0058 1.70311 32.125 1.70313L39.8751 1.70315C43.9942 1.70316 47.7598 3.64925 49.6019 6.73006L51.8282 10.4533C53.4922 13.2362 56.8936 14.994 60.6143 14.994C66.0395 14.994 70.4375 18.6717 70.4375 23.2082V50.2031C70.4375 55.2254 65.5686 59.2968 59.5625 59.2968H12.4375C6.4314 59.2968 1.5625 55.2254 1.5625 50.2031Z" stroke="#070707" stroke-width="2"/>
</svg>
