<!-- Generated by IcoMoon.io -->
<svg version="1.1" xmlns="http://www.w3.org/2000/svg" width="34" height="32" viewBox="0 0 34 32">
<path fill="none" stroke-linejoin="miter" stroke-linecap="round" stroke-miterlimit="4" stroke-width="2.1333" stroke="#000" d="M22.209 27.706c-1.737 0.807-3.666 1.332-5.696 1.332-7.647 0-13.846-7.448-13.846-9.34 0-1.073 1.992-3.93 5.11-6.205M28.698 22.692c1.060-1.275 1.661-2.404 1.661-2.993 0-1.892-6.199-9.34-13.846-9.34 3.365 0 6.092 2.706 6.092 6.044M16.513 22.446c-3.365 0-6.092-2.706-6.092-6.044M31.467 10.359c-4.217-3.49-9.141-5.494-14.4-5.494-1.896 0-3.747 0.26-5.538 0.757M2.667 10.359c0.391-0.324 0.788-0.634 1.191-0.932M2.667 2.667l26.743 27"></path>
</svg>
