<svg
  width="41"
  height="41"
  viewBox="0 0 41 41"
  fill="none"
  xmlns="http://www.w3.org/2000/svg"
>
  <rect
    x="1"
    y="1.4043"
    width="39"
    height="39"
    rx="19.5"
    stroke="#374F42"
    fill="transparent"
  />
  <path
    d="M20.4971 12.4043C21.7607 12.4043 22.9206 12.5252 23.8398 12.665C25.0036 12.8421 25.916 13.6396 26.1758 14.7539C26.4894 16.0991 26.7969 18.1457 26.7441 20.8945C26.6859 23.9276 26.2432 26.1159 25.8164 27.5439C25.701 27.9299 25.4339 28.1286 25.1318 28.1797C24.816 28.233 24.4263 28.1279 24.1094 27.8125C23.5326 27.2383 22.8719 26.6181 22.2627 26.1387C21.9586 25.8994 21.6558 25.686 21.375 25.5303C21.1101 25.3834 20.7995 25.25 20.4971 25.25C20.1993 25.25 19.8783 25.3812 19.5977 25.5254C19.2986 25.679 18.9675 25.8898 18.6289 26.1289C17.9504 26.608 17.1989 27.2287 16.5371 27.8037C16.1878 28.1072 15.7764 28.179 15.4521 28.0908C15.1392 28.0056 14.8752 27.7652 14.7939 27.3467C14.5149 25.9087 14.25 23.7848 14.25 20.9043C14.25 18.0308 14.5461 16.004 14.8408 14.6992C15.085 13.6179 15.9671 12.848 17.1016 12.6729C18.0289 12.5296 19.2091 12.4043 20.4971 12.4043Z"
    stroke="currentColor"
    stroke-linecap="round"
    stroke-linejoin="round"
  />
</svg>
